<?xml version="1.0" standalone="no"?>
<!DOCTYPE svg PUBLIC "-//W3C//DTD SVG 20010904//EN"
 "http://www.w3.org/TR/2001/REC-SVG-20010904/DTD/svg10.dtd">
<svg version="1.0" xmlns="http://www.w3.org/2000/svg"
 width="512.000000pt" height="512.000000pt" viewBox="0 0 512.000000 512.000000"
 preserveAspectRatio="xMidYMid meet">
<metadata>
Created by potrace 1.11, written by Peter Selinger 2001-2013
</metadata>
<g transform="translate(0.000000,512.000000) scale(0.100000,-0.100000)"
fill="#000000" stroke="none">
<path d="M2395 5113 c-226 -42 -393 -125 -537 -266 -60 -59 -150 -173 -187
-237 -121 -211 -201 -464 -228 -727 -16 -152 -9 -490 13 -633 16 -105 36 -220
46 -255 5 -22 11 -47 13 -55 32 -162 141 -468 243 -680 119 -247 301 -524 470
-714 82 -92 242 -241 332 -309 52 -40 97 -75 98 -79 2 -5 9 -8 15 -8 6 0 18
-7 28 -16 43 -39 274 -153 374 -185 39 -12 74 -26 79 -30 5 -4 9 -78 10 -163
1 -178 15 -159 -109 -158 -38 0 -80 -2 -93 -5 -32 -7 -55 -55 -42 -87 13 -35
39 -46 115 -46 l67 0 -46 -64 c-50 -70 -58 -112 -28 -138 51 -44 87 -26 156
78 l49 74 16 -33 c21 -42 57 -53 171 -52 49 0 90 -1 90 -3 0 -1 -29 -46 -65
-99 -36 -53 -65 -98 -66 -102 0 -3 -2 -15 -4 -25 -5 -25 20 -73 44 -86 33 -17
78 -12 105 13 13 12 76 100 140 195 l116 173 0 269 0 269 38 11 c20 5 72 29
114 52 221 122 386 318 502 600 20 48 36 89 36 91 0 3 -35 -30 -77 -72 -175
-174 -376 -253 -618 -246 -219 7 -412 74 -620 216 -263 180 -464 418 -626 739
-66 132 -142 329 -164 425 -2 11 -9 40 -16 65 -10 43 -13 55 -24 118 -29 163
-37 367 -21 525 31 296 152 566 330 737 276 266 677 311 1060 119 82 -42 219
-130 271 -174 17 -15 41 -36 55 -47 14 -11 36 -30 49 -42 13 -11 20 -14 16 -6
-20 35 -177 258 -205 290 -17 19 -45 54 -63 77 -56 73 -268 278 -369 356 -104
81 -239 167 -328 209 -74 35 -169 77 -178 78 -4 0 -38 10 -76 21 -80 24 -91
26 -171 38 -59 9 -261 12 -300 4z m1075 -4234 c41 0 86 2 100 3 l25 3 1 -187
1 -188 -41 -1 c-22 0 -90 -1 -151 -2 l-110 -2 3 193 3 194 47 -7 c26 -3 81 -6
122 -6z"/>
<path d="M3052 4229 c-150 -38 -276 -125 -382 -262 -72 -93 -144 -271 -176
-434 -19 -95 -25 -382 -10 -483 32 -223 94 -426 191 -625 54 -112 131 -244
172 -295 106 -135 143 -177 211 -242 98 -93 208 -176 305 -228 71 -39 185 -85
229 -94 13 -3 48 -10 78 -16 125 -25 300 -3 418 52 108 51 219 149 285 252 65
100 126 252 146 363 6 32 14 69 17 83 11 45 13 353 3 420 -16 116 -19 130 -45
250 -3 14 -22 77 -43 140 -137 410 -383 749 -701 967 -79 54 -234 123 -332
147 -120 31 -259 33 -366 5z"/>
<path d="M1131 4148 c-97 -8 -207 -39 -271 -76 -99 -57 -191 -177 -235 -307
-47 -139 -69 -438 -45 -620 5 -33 11 -82 14 -110 4 -27 10 -66 13 -85 4 -19 7
-39 8 -45 8 -79 33 -164 35 -120 2 20 2 25 14 75 45 203 136 350 273 444 70
47 180 92 253 102 71 10 75 11 72 24 -5 23 -3 314 3 390 7 90 13 135 41 302 5
25 3 26 -43 30 -26 1 -86 0 -132 -4z"/>
</g>
</svg>
